<svg width="24" height="24" viewBox="0 0 24 24" fill="none" xmlns="http://www.w3.org/2000/svg">
  <!-- Outer wheel -->
  <rect x="2" y="11" width="20" height="2" fill="#e8da99"/>
  <rect x="11" y="2" width="2" height="20" fill="#e8da99"/>
  <!-- Inner hub -->
  <rect x="9" y="9" width="6" height="6" fill="#e8da99"/>
  <!-- Spokes -->
  <rect x="10" y="3" width="4" height="2" fill="#c3b17f"/>
  <rect x="10" y="19" width="4" height="2" fill="#c3b17f"/>
  <rect x="3" y="10" width="2" height="4" fill="#c3b17f"/>
  <rect x="19" y="10" width="2" height="4" fill="#c3b17f"/>
  <!-- Diagonal spokes -->
  <rect x="4" y="4" width="2" height="2" fill="#c3b17f"/>
  <rect x="6" y="6" width="2" height="2" fill="#c3b17f"/>
  <rect x="16" y="16" width="2" height="2" fill="#c3b17f"/>
  <rect x="18" y="18" width="2" height="2" fill="#c3b17f"/>
  <rect x="18" y="4" width="2" height="2" fill="#c3b17f"/>
  <rect x="16" y="6" width="2" height="2" fill="#c3b17f"/>
  <rect x="4" y="16" width="2" height="2" fill="#c3b17f"/>
  <rect x="6" y="18" width="2" height="2" fill="#c3b17f"/>
</svg>
