<svg width="24" height="24" viewBox="0 0 24 24" fill="none" xmlns="http://www.w3.org/2000/svg">
  <!-- Scale base -->
  <rect x="10" y="18" width="4" height="4" fill="#e8da99"/>
  <!-- Scale arm -->
  <rect x="4" y="10" width="16" height="2" fill="#e8da99"/>
  <!-- Scale support -->
  <rect x="11" y="12" width="2" height="6" fill="#e8da99"/>
  <!-- Left scale pan -->
  <rect x="2" y="12" width="6" height="2" fill="#e8da99"/>
  <rect x="3" y="11" width="4" height="4" fill="#e8da99"/>
  <!-- Right scale pan -->
  <rect x="16" y="12" width="6" height="2" fill="#e8da99"/>
  <rect x="17" y="11" width="4" height="4" fill="#e8da99"/>
  <!-- Smile faces on scales -->
  <!-- Left smile -->
  <rect x="4" y="13" width="1" height="1" fill="#c3b17f"/>
  <rect x="6" y="13" width="1" height="1" fill="#c3b17f"/>
  <rect x="4" y="14" width="3" height="1" fill="#c3b17f"/>
  <!-- Right smile -->
  <rect x="17" y="13" width="1" height="1" fill="#c3b17f"/>
  <rect x="19" y="13" width="1" height="1" fill="#c3b17f"/>
  <rect x="17" y="14" width="3" height="1" fill="#c3b17f"/>
  <!-- Scale chains -->
  <rect x="5" y="10" width="1" height="2" fill="#c3b17f"/>
  <rect x="18" y="10" width="1" height="2" fill="#c3b17f"/>
</svg>
